<svg stroke="#EAEAEA" fill="#EAEAEA" xmlns="http://www.w3.org/2000/svg" viewBox="18.713265999999997 17.4788 21.83 21.83" style="max-height: 500px" width="21.83" height="21.83">

<g stroke-width="0" id="SVGRepo_bgCarrier"/>

<g stroke-linejoin="round" stroke-linecap="round" id="SVGRepo_tracerCarrier"/>

<g id="SVGRepo_iconCarrier">

<defs>

<filter filterUnits="objectBoundingBox" y="-50%" x="-50%" height="800%" width="800%" id="a">

<feOffset result="shadowOffsetOuter1" in="SourceAlpha" dy="1"/>

<feGaussianBlur result="shadowBlurOuter1" in="shadowOffsetOuter1" stdDeviation="10"/>

<feColorMatrix result="shadowMatrixOuter1" in="shadowBlurOuter1" values="0 0 0 0 0 0 0 0 0 0 0 0 0 0 0 0 0 0 0.1 0"/>

<feMerge>

<feMergeNode in="shadowMatrixOuter1"/>

<feMergeNode in="SourceGraphic"/>

</feMerge>

</filter>

</defs>

<path filter="url(#a)" d="M20 35v-12.991c0-1.662 1.336-3.009 3-3.009h13c1.657 0 3 1.337 3 3.009v9.981c0 1.662-1.342 3.009-2.999 3.009h-10.001l-3.508 2.338c-1.377.918-2.492.319-2.492-1.329v-1.009zm4.891-1.664l.504-.336h10.607c.55 0 .999-.45.999-1.009v-9.981c0-.565-.444-1.009-1-1.009h-13c-.555 0-1 .447-1 1.009v12.991l2.891-1.664zm1.109-8.336c0-.552.438-1 1.003-1h4.994c.554 0 1.003.444 1.003 1 0 .552-.438 1-1.003 1h-4.994c-.554 0-1.003-.444-1.003-1zm0 4c0-.552.438-1 1.003-1h4.994c.554 0 1.003.444 1.003 1 0 .552-.438 1-1.003 1h-4.994c-.554 0-1.003-.444-1.003-1z" fill-rule="evenodd"/>

</g>

</svg>